<svg xmlns="http://www.w3.org/2000/svg" version="1.1" xmlns:xlink="http://www.w3.org/1999/xlink" xmlns:svgjs="http://svgjs.dev/svgjs" width="128" height="128" viewBox="0 0 128 128"><g transform="matrix(0.44782608695652176,0,0,0.44782608695652176,35.339226276730436,12.5)"><svg viewBox="0 0 125 225" data-background-color="#0093fb" preserveAspectRatio="xMidYMid meet" height="230" width="128" xmlns="http://www.w3.org/2000/svg" xmlns:xlink="http://www.w3.org/1999/xlink"><g id="tight-bounds" transform="matrix(1,0,0,1,-0.00020899999999812735,0)"><svg viewBox="0 0 125 225" height="225" width="125"><g><svg></svg></g><g><svg viewBox="0 0 125 225" height="225" width="125"><g><path transform="translate(-29.29403,21.95688) scale(1.81951,1.81951)" d="M20.6 59.9l0.8 1-0.4-1.3c-0.1-0.6-0.8 0.1-0.4 0.3M21.5 59.3c0.3 0.5 0.6 1 0.6 1.5 0 0.7 0.6 1 1.1 1.2-0.7-0.8-1.1-3-1.7-2.7M59.9 16.9c1.7 0 3.3-0.2 5.1 0.2 4.4 1.1 8.1 3.3 10.6 6.4l7 11.2c0.3 2.8 0.9 5.9 0.8 9.3 0.7 0 0.6-1 1.4-1.2-0.8 2-1.2 4.5-1.4 7.4-0.5-1.6 0-4 0.1-5.3-0.7 1.1-1.1 0.3-1.1-0.2 0.1-0.8-0.3-0.7-0.6-1-1.1-1-1.8-2.1-2.6-3.8 0.5-1.3 0.6-3.2-1-4.2-0.5-0.3-1.1-0.8-1.4-1.6-0.4-1.1-1.1-2.4-0.9-4.1 0.1-0.5-1.5 1.1-2.4 0.4-3.9-2.7-7.8-5.8-12.5-8.4-2.5 0-4.3-0.9-5.2-2-0.8-1-0.2-2.3 1-2.4 0.7 0 1.5-0.2 2.1 0.2 0.1-0.4 0.5-0.9 1-0.9M50 14.6l0.2 0.1c1 0.2 1.5 1.6 2.6 1.1 0 0.7 0.1 1.4-0.1 1.9-0.3 0.8-1.2 0.8-1.9 0.8-6.7-0.4-10.6 2.4-14.7 4.8-1.1 0.7-2.3 1.2-3.2 2.1-4.3 4-9 7.7-10.1 15.1l-0.9 8.2c-0.1 0.9-1.1 1.8-0.9 2.9l0.7 4.9c-0.7-0.7-1.1 0.2-0.9 0.6 0.1 0.3 0.5 1.3 1.1 0.4 0.8 1.5 1.6 4.4 2.7 5.7 3.4 4 7.8 7.6 11.4 11.2 0.9-0.2 1.6-0.2 1.8-0.8 0.3 0.6-0.3 1.2-0.8 1.3 1.6 1 3.4 1.9 5.8 2.1 3.1 0.2 6 0.7 8.7 1.4 1.4-0.4 2.8-0.6 4.3-0.7 0.5 0 0.8-0.8 1.4-1l0.1-1c0.6 0.9 0.5-0.3 0.1-0.9 0.7 0.6 0.9 1.1 1.2 1.5 0-0.3 0.8-1.4 0.8-0.1l0.2-1.3c0.3-0.2 0.4 1.1 0.7 0.2 0.3-0.9 0.9-0.2 1.5-0.5-0.2 0.4-0.1 1.2 0.6 0.7l0.8-0.7c0.5 1.2 1.3 0.7 1.7 0.5 4.4-2.8 8.8-6.1 13-9.4l-0.1 1.3 0.5-1.6c0.5 0.5 0.9 0.1 1.1-0.2 0.6-1 1.4-2 2.7-2.9-1.6 4.3-3.5 7.7-5.9 10.5l-1 1.2c0 0.7-0.2 1.6-1 1.7-0.4 0.1-1.2-0.2-1.8 0.4-0.3 0.4 0.7 1.2-0.1 0.6-0.7-0.5-1.4 0-2.2 0.2-0.6 0.2 0.4 0.8 0.6 1.2 0.2 0.4 0.4 0.8 0.3 1.3l-1.1-1.2c-1.3 0.7-2.1 2-3.2 3-0.5 0.4-0.3 1.1-0.3 1.7-0.7 0-1.5-0.2-1.9 0.2-0.3 0.4-0.2 1-0.2 1.6-1-0.1-1.1-1.6-2-1.3-0.9 0.2-1.9 0.3-2.7 0.8 0.6 1.2-1 0.5-0.8 0.7-1.5-0.9-2.8-1.6-4.4-1-3.4-1.1-7.6-0.6-10.7-0.2 0-0.5 0.1-1-0.1-1.1-0.2 0.5-0.8 0.3-0.7 0.3-1.9-1.3-3.8-2.1-5.8-3.2-1.8 0.2-3.5-0.7-4-1.2-1.4-1.3-3-0.6-4.3-0.9-2.8-0.7-3.8-3.6-4.1-5.6-0.2-1-1-1.4-1.3-1.3-1.3-4.2-3.3-8-4.9-11.9-0.4-1-0.3-2-0.3-3.1 0.5 0.2 1 0.1 0.9-0.6-0.5-3.3-1.7-5.8-3-8.2 0.7-3.4 0.8-7.4 2.4-10.4 1.4-2.7 4-4.1 5.8-6.4 0.6-0.8 0.6-1.9 1.2-2.6 2-2 4-4.1 6.2-5.9 1-0.8 2.2 0 3.7-0.3 0.5-1.8 2.5-3.4 4.4-2.9 0.8 0.2 2.4-1.9 2.9-2.1 0.8-0.3 0.4 0.8 0.4 1.5 1.9-1.5 4.5-2.3 6.9-3.2" fill="#ffffff" fill-rule="nonzero" stroke="none" stroke-width="1" stroke-linecap="butt" stroke-linejoin="miter" stroke-miterlimit="10" stroke-dasharray="" stroke-dashoffset="0" font-family="none" font-weight="none" font-size="none" text-anchor="none" style="mix-blend-mode: normal" data-fill-palette-color="tertiary"></path></g><g transform="matrix(1,0,0,1,48.17785,99.94804074229552)"><svg viewBox="0 0 28.6443 25.103918515408964" height="25.103918515408964" width="28.6443"><g><svg viewBox="0 0 28.6443 25.103918515408964" height="25.103918515408964" width="28.6443"><g><svg viewBox="0 0 28.6443 25.103918515408964" height="25.103918515408964" width="28.6443"><g id="textblocktransform"><svg viewBox="0 0 28.6443 25.103918515408964" height="25.103918515408964" width="28.6443" id="textblock"><g><svg viewBox="0 0 28.6443 25.103918515408964" height="25.103918515408964" width="28.6443"><g><svg viewBox="0 0 28.6443 25.103918515408964" height="25.103918515408964" width="28.6443"><g><svg xmlns="http://www.w3.org/2000/svg" xmlns:xlink="http://www.w3.org/1999/xlink" version="1.1" x="0" y="0" viewBox="2.5020459485135595 8.681000000000001 99.99864388338915 87.63900000000001" enable-background="new 0 0 105 105" xml:space="preserve" height="25.103918515408964" width="28.6443" class="icon-icon-0" data-fill-palette-color="accent" id="icon-0"><g fill="#ffffff" data-fill-palette-color="accent"><path fill="#ffffff" d="M5.978 54.524h1.91l0.471 3.076c5.366 7.639 13.987 12.654 23.771 12.654 9.775 0 18.399-5.016 23.766-12.654l0.475-3.076h1.906c1.812 0 3.282-1.471 3.282-3.28 0-1.815-1.471-3.284-3.282-3.284H5.978c-1.811 0-3.278 1.469-3.278 3.284C2.699 53.054 4.167 54.524 5.978 54.524z" data-fill-palette-color="accent"></path><path fill="#ffffff" d="M32.129 75.853c-8.475 0-16.186-3.116-22.248-8.243l3.646 23.897c0 0-0.218 4.813 9.189 4.813 9.412 0 9.412 0 9.412 0s0 0 9.407 0c9.411 0 9.19-4.813 9.19-4.813l3.642-23.897C48.318 72.736 40.607 75.853 32.129 75.853z" data-fill-palette-color="accent"></path><path fill="#ffffff" d="M6.018 43.582c-0.067-1.722 0.396-4.656 3.863-6.784 5.181-3.169 9.661 1.752 9.661 1.752s2.19-8.535 12.587-8.535c10.392 0 11.159 6.566 11.159 6.566s2.626-3.613 8.751-2.518c6.126 1.096 5.252 8.206 5.252 8.206l0.02 1.313h3.476l-0.023-0.886c0.519-4.182-1.214-10.847-8.106-12.078-3.298-0.578-6.015-0.096-8.071 0.789-2.119-2.571-5.983-4.893-12.456-4.893-7.114 0-11.516 3.437-13.904 6.842-2.768-1.317-6.43-1.84-10.175 0.459-4.473 2.744-5.604 6.811-5.548 9.767H6.018z" data-fill-palette-color="accent"></path><path fill="#ffffff" d="M34.699 18.416c-2.689 0-4.868-2.183-4.868-4.865 0-2.684 2.179-4.87 4.868-4.87 2.685 0 4.867 2.187 4.867 4.87C39.566 16.233 37.384 18.416 34.699 18.416zM34.699 10.433c-1.721 0-3.12 1.396-3.12 3.118 0 1.718 1.399 3.118 3.12 3.118 1.716 0 3.116-1.4 3.116-3.118C37.815 11.828 36.415 10.433 34.699 10.433z" data-fill-palette-color="accent"></path><path fill="#ffffff" d="M48.045 26.242c-3.199 0-5.797-2.603-5.797-5.802 0-3.195 2.598-5.797 5.797-5.797 3.203 0 5.802 2.602 5.802 5.797C53.847 23.64 51.248 26.242 48.045 26.242zM48.045 16.729c-2.044 0-3.713 1.667-3.713 3.711 0 2.053 1.669 3.713 3.713 3.713 2.045 0 3.714-1.66 3.714-3.713C51.759 18.396 50.09 16.729 48.045 16.729z" data-fill-palette-color="accent"></path><path fill="#ffffff" d="M81.147 52.938c0 0-1.431-4.539-4.18-7.763-2.748-3.225-3.736-16.644-3.736-16.644s-0.443-2.108-2.112-2.108c-1.668 0-2.028 2.028-2.028 2.028l3.697 17.799c0 0-1.965 4.117-0.771 8.418C72.018 54.669 78.779 52.771 81.147 52.938z" data-fill-palette-color="accent"></path><path fill="#ffffff" d="M81.385 56.044c0 0 5.825 11.245 19.892 13.788 2.024 0.368 1.309 2.155-0.487 2.515-1.791 0.359-6.03 0.775-9.016-1.49 0 0 2.19 3.98 7.486 7.842 5.291 3.861 0.755 4.816-1.277 2.785-2.029-2.03-7.162-5.732-7.162-5.732s3.184 8.336 4.18 9.914c2.029 3.223 0.403 6.377-1.353 4.382-1.755-1.993-5.575-12.027-5.575-12.027s4.48 13.795 3.282 14.511c-1.194 0.716-1.91 0.718-2.985-1.313-1.076-2.029-3.492-11.797-3.492-11.797s0.249 9.804-0.15 11.141c-0.656 2.21-2.507 0.836-2.266-0.123 0.585-2.346-0.538-10.329-0.538-10.329s-0.656 10.452-2.685 12.959c-3.527 4.352-4.09 0.336-2.931-1.493 2.547-4.02 3.306-11.863 3.306-11.863s-3.424 9.715-7.189 11.805c-1.558 0.867-3.076-0.738-1.787-1.79 2.63-2.151 5.793-10.341 5.793-10.341s-5.5 6.493-8.182 8.07c-1.455 0.852-3.155-1.095-1.791-1.793 2.448-1.256 7.739-8.625 7.739-8.625s-6.73 5.982-9.36 7.378c-1.783 0.946-3.646-0.38-1.843-1.738 3.887-2.935 8.656-7.823 8.656-7.823s-6.45 4.877-8.984 5.693c-3.069 0.991-4.394-0.431 1.823-4.021 3.756-2.17 5.164-5.211 5.164-5.211s-4.54 3.713-9.166 4.91c-1.614 0.42-3.88-0.414-3.52-1.49 0.352-1.076 3.772-1.227 4.595-1.613 6.505-3.045 7.379-6.379 8.897-9.492 0.704-1.447 2.183-6.059 2.183-6.059L81.385 56.044z" data-fill-palette-color="accent"></path></g></svg></g></svg></g></svg></g></svg></g></svg></g><g></g></svg></g></svg></g></svg></g><defs></defs></svg><rect width="125" height="225" fill="none" stroke="none" visibility="hidden"></rect></g></svg></g></svg>